<?xml version="1.0" encoding="UTF-8" standalone="no"?>
<svg width="1920px" height="600px" viewBox="0 0 1920 600" version="1.1" xmlns="http://www.w3.org/2000/svg" xmlns:xlink="http://www.w3.org/1999/xlink" xmlns:sketch="http://www.bohemiancoding.com/sketch/ns">
    <!-- Generator: Sketch 3.2.2 (9983) - http://www.bohemiancoding.com/sketch -->
    <title>IP6</title>
    <desc>Created with Sketch.</desc>
    <defs></defs>
    <g id="Welcome" stroke="none" stroke-width="1" fill="none" fill-rule="evenodd" sketch:type="MSPage">
        <g id="Desktop-HD" sketch:type="MSArtboardGroup">
            <g id="IP6" sketch:type="MSLayerGroup">
                <path d="M0,0 L1920,0 L1920,600 L0,600 L0,0 Z M855,110 L1060,110 L1060,480 L855,480 L855,110 Z" id="Rectangle-7" fill-opacity="0.6" fill="#000000" sketch:type="MSShapeGroup"></path>
                <g id="Frame" transform="translate(852.000000, 72.000000)" sketch:type="MSShapeGroup">
                    <path d="M188.052756,0.118076295 L28.6579103,0.118076295 C10.8110513,0.118076295 0.089025641,11.4936855 0.089025641,29.0328773 L0.089025641,426.612433 C0.089025641,443.701546 10.2143013,455.813395 28.916641,455.813395 L188.311487,455.813395 C206.158346,455.813395 216.880372,444.435008 216.880372,426.897205 L216.880372,29.3176495 C216.880372,12.2299259 206.755096,0.118076295 188.052756,0.118076295 L188.052756,0.118076295 Z M8.98324359,51.0936966 L207.493731,51.0936966 L207.493731,403.484759 L8.98324359,403.484759 L8.98324359,51.0936966 Z" id="Fill-1" fill="#FFFFFF"></path>
                    <path d="M125.506679,429.029524 C125.506679,438.667328 117.687724,446.477033 108.036788,446.477033 C98.3900256,446.477033 90.5724615,438.667328 90.5724615,429.029524 C90.5724615,419.395888 98.3900256,411.586182 108.036788,411.586182 C117.687724,411.586182 125.506679,419.395888 125.506679,429.029524" id="Fill-2" fill="#FFFFFF"></path>
                    <path d="M125.506679,429.029524 C125.506679,438.667328 117.687724,446.477033 108.036788,446.477033 C98.3900256,446.477033 90.5724615,438.667328 90.5724615,429.029524 C90.5724615,419.395888 98.3900256,411.586182 108.036788,411.586182 C117.687724,411.586182 125.506679,419.395888 125.506679,429.029524 L125.506679,429.029524 Z" id="Stroke-3" stroke="#8B908D" stroke-width="0.25"></path>
                    <path d="M111.621462,10.2837507 C111.621462,11.959045 110.261038,13.3203952 108.583462,13.3203952 C106.905885,13.3203952 105.545462,11.959045 105.545462,10.2837507 C105.545462,8.60706735 106.905885,7.25266279 108.583462,7.25266279 C110.261038,7.25266279 111.621462,8.60706735 111.621462,10.2837507" id="Fill-4" fill="#FFFFFF"></path>
                    <path d="M111.621462,10.2837507 C111.621462,11.959045 110.261038,13.3203952 108.583462,13.3203952 C106.905885,13.3203952 105.545462,11.959045 105.545462,10.2837507 C105.545462,8.60706735 106.905885,7.25266279 108.583462,7.25266279 C110.261038,7.25266279 111.621462,8.60706735 111.621462,10.2837507 L111.621462,10.2837507 Z" id="Stroke-5" stroke="#8B908D" stroke-width="0.25"></path>
                    <path d="M91.4933205,28.1549453 C90.489,28.1549453 89.676641,27.4506549 89.676641,26.583836 C89.676641,25.7142388 90.489,25.0099485 91.4933205,25.0099485 L124.530179,25.0099485 C125.533109,25.0099485 126.349641,25.7142388 126.349641,26.583836 C126.349641,27.4506549 125.533109,28.1549453 124.530179,28.1549453 L91.4933205,28.1549453" id="Fill-6" fill="#FFFFFF"></path>
                    <path d="M91.4933205,28.1549453 C90.489,28.1549453 89.676641,27.4506549 89.676641,26.583836 C89.676641,25.7142388 90.489,25.0099485 91.4933205,25.0099485 L124.530179,25.0099485 C125.533109,25.0099485 126.349641,25.7142388 126.349641,26.583836 C126.349641,27.4506549 125.533109,28.1549453 124.530179,28.1549453 L91.4933205,28.1549453 L91.4933205,28.1549453 Z" id="Stroke-7" stroke="#8B908D" stroke-width="0.25"></path>
                    <path d="M75.6119808,26.5588316 C75.6119808,28.7758877 73.8119936,30.5748148 71.5933077,30.5748148 C69.3732308,30.5748148 67.5746346,28.7758877 67.5746346,26.5588316 C67.5746346,24.3403864 69.3732308,22.548405 71.5933077,22.548405 C73.8119936,22.548405 75.6119808,24.3403864 75.6119808,26.5588316" id="Fill-8" fill="#FFFFFF"></path>
                    <path d="M75.6119808,26.5588316 C75.6119808,28.7758877 73.8119936,30.5748148 71.5933077,30.5748148 C69.3732308,30.5748148 67.5746346,28.7758877 67.5746346,26.5588316 C67.5746346,24.3403864 69.3732308,22.548405 71.5933077,22.548405 C73.8119936,22.548405 75.6119808,24.3403864 75.6119808,26.5588316 L75.6119808,26.5588316 Z" id="Stroke-9" stroke="#8B908D" stroke-width="0.25"></path>
                </g>
                <g id="Rectangle-69-+-Snap-the-Problem" transform="translate(861.000000, 123.000000)">
                    <rect id="Rectangle-69" fill-opacity="0.5" fill="#000000" sketch:type="MSShapeGroup" x="0" y="0" width="199" height="34"></rect>
                    <text id="Snap-the-Problem" sketch:type="MSTextLayer" font-family="Helvetica Neue" font-size="9.71428571" font-weight="420" sketch:alignment="middle" fill="#FFFFFF">
                        <tspan x="59.2828571" y="25.546875">Snap the Problem</tspan>
                    </text>
                </g>
                <g id="Capture" transform="translate(941.000000, 417.000000)" sketch:type="MSShapeGroup">
                    <path d="M20,40 C31.045695,40 40,31.045695 40,20 C40,8.954305 31.045695,0 20,0 C8.954305,0 0,8.954305 0,20 C0,31.045695 8.954305,40 20,40 Z" id="Oval-1" stroke="#000000" stroke-width="3"></path>
                    <path d="M20,39.4444444 C30.7388701,39.4444444 39.4444444,30.7388701 39.4444444,20 C39.4444444,9.26112986 30.7388701,0.555555556 20,0.555555556 C9.26112987,0.555555556 0.555555556,9.26112986 0.555555556,20 C0.555555556,30.7388701 9.26112987,39.4444444 20,39.4444444 Z" id="Oval-2" fill="#F8E81C"></path>
                </g>
            </g>
        </g>
    </g>
</svg>